<?xml version="1.0" encoding="iso-8859-1"?>
<!-- Generator: Adobe Illustrator 24.1.1, SVG Export Plug-In . SVG Version: 6.00 Build 0)  -->
<svg version="1.1" id="katman_1" xmlns="http://www.w3.org/2000/svg" xmlns:xlink="http://www.w3.org/1999/xlink" x="0px" y="0px"
	 viewBox="0 0 300 100" style="enable-background:new 0 0 300 100;" xml:space="preserve">
<g>
	<polygon style="fill-rule:evenodd;clip-rule:evenodd;fill:#3EB072;" points="279.803,34.222 300,34.222 300,42.253 271.772,42.253 
		271.772,1.151 279.803,1.151 	"/>
	<path style="fill-rule:evenodd;clip-rule:evenodd;fill:#3EB072;" d="M8.031,9.182v25.039h5.551
		c6.85-0.118,12.283-5.669,12.283-12.52c0-6.732-5.433-12.402-12.165-12.52H8.031z M13.346,1.151
		c11.339,0,20.551,9.213,20.551,20.551c0,11.22-8.976,20.433-20.197,20.551c-4.252,0.118-8.504,0-12.638,0H0V1.151h1.063
		C5.197,1.151,9.213,1.151,13.346,1.151L13.346,1.151z"/>
	<path style="fill-rule:evenodd;clip-rule:evenodd;fill:#3EB072;" d="M96.26,13.671c-0.709-1.299-1.772-2.48-2.953-3.425
		c-1.417-1.181-3.071-1.89-4.843-2.126c-1.417-0.236-2.835-0.118-4.134,0.118c-1.063,0.236-2.126,0.591-3.071,1.299
		c-0.827,0.591-1.417,1.417-1.772,2.48c-0.118,0.591-0.236,1.181-0.118,1.772c0.118,0.591,0.354,1.181,0.709,1.654
		c0.591,0.945,1.654,1.417,2.717,1.772c1.417,0.354,2.835,0.591,4.252,0.827c4.252,0.709,8.858,1.417,12.165,4.488
		c2.244,2.126,3.78,5.079,3.898,8.15c0.236,3.189-0.945,6.024-3.071,8.268c-0.945,0.945-2.008,1.772-3.071,2.48
		c-3.189,1.89-7.205,2.717-10.984,2.48c-4.252-0.354-8.15-2.126-11.339-5.079c-1.063-1.063-2.126-2.362-2.953-3.661l-0.472-0.709
		l6.142-5.315l0.591,0.945c0.591,1.063,1.417,2.126,2.244,2.835c1.772,1.772,4.016,2.717,6.496,2.953
		c2.008,0.118,4.37-0.236,6.142-1.299c0.472-0.354,0.945-0.709,1.417-1.181c0.472-0.591,0.945-1.299,0.945-2.244
		c-0.118-1.063-0.827-2.126-1.535-2.835c-1.535-1.535-5.787-2.008-7.913-2.362c-1.654-0.354-3.425-0.591-5.079-1.063
		c-2.835-0.827-5.433-2.362-7.087-4.843c-1.063-1.417-1.772-3.189-2.126-4.961c-0.236-1.772-0.118-3.543,0.354-5.315
		c0.709-2.717,2.48-5.079,4.724-6.732c1.89-1.299,4.016-2.126,6.142-2.598c2.244-0.472,4.488-0.591,6.85-0.236
		c3.189,0.354,6.26,1.772,8.858,3.78c1.654,1.299,3.071,2.953,4.134,4.724l0.472,0.709l-6.142,5.433L96.26,13.671z"/>
	<path style="fill-rule:evenodd;clip-rule:evenodd;fill:#3EB072;" d="M258.425,1.151h8.031v26.575c0,4.252-1.772,8.268-4.724,11.339
		c-2.953,2.953-7.087,4.606-11.22,4.606c-4.252,0-8.268-1.654-11.339-4.606c-2.953-3.071-4.606-7.087-4.606-11.339V1.151h8.032
		v26.575c0,2.126,0.827,4.134,2.244,5.669c1.535,1.417,3.543,2.244,5.669,2.244c2.008,0,4.016-0.827,5.551-2.244
		c1.535-1.535,2.362-3.543,2.362-5.669V1.151z"/>
	<path style="fill-rule:evenodd;clip-rule:evenodd;fill:#3EB072;" d="M208.937,9.182v8.504h15.118v8.031h-15.118v16.535h-8.031
		v-0.945c0-13.346,0-26.693,0-40.157h28.228v8.031H208.937z"/>
	<polygon style="fill-rule:evenodd;clip-rule:evenodd;fill:#3EB072;" points="187.559,24.301 187.559,1.151 195.472,1.151 
		195.472,42.253 170.197,19.222 170.197,42.253 162.165,42.253 162.165,1.151 	"/>
	<path style="fill-rule:evenodd;clip-rule:evenodd;fill:#3EB072;" d="M148.701,34.34v-6.614h-10.039v-8.031h18.071v1.063
		c0,7.205,0,14.409,0,21.496H141.26c-11.339,0-20.551-9.213-20.551-20.551c0-11.339,9.213-20.551,20.551-20.551
		c5.551,0,10.866,2.244,14.646,6.26l0.709,0.709l-5.669,5.669l-0.709-0.709c-2.362-2.48-5.551-3.898-8.976-3.898
		c-6.968,0-12.52,5.669-12.52,12.52c0,6.969,5.551,12.52,12.52,12.52L148.701,34.34z"/>
	<rect x="108.543" y="1.151" style="fill-rule:evenodd;clip-rule:evenodd;fill:#3EB072;" width="8.032" height="41.102"/>
	<path style="fill-rule:evenodd;clip-rule:evenodd;fill:#3EB072;" d="M45.709,25.718v8.504h20.197v8.031H37.677v-0.945
		c0-13.11,0-26.102,0-39.094V1.151h28.228v8.031H45.709v8.504h15.118v8.031H45.709z"/>
	<path style="fill-rule:evenodd;clip-rule:evenodd;fill:#2F3437;" d="M294.685,15.206c1.654,0.709,3.307,1.417,4.961,2.008
		c0.236,0.118,0.354,0.354,0.354,0.472c0,0.236-0.118,0.472-0.354,0.472c-1.654,0.709-3.307,1.417-4.961,2.008
		c-0.709,1.772-1.299,3.425-2.008,5.079c-0.118,0.236-0.236,0.354-0.472,0.354c-0.236,0-0.472-0.118-0.472-0.354
		c-0.709-1.654-1.417-3.307-2.008-5.079c-1.654-0.591-3.425-1.299-5.079-2.008c-0.118,0-0.236-0.236-0.236-0.472
		c0-0.118,0.118-0.354,0.236-0.472c1.654-0.591,3.425-1.299,5.079-2.008c0.591-1.654,1.299-3.307,2.008-4.961
		c0-0.236,0.236-0.354,0.472-0.354c0.236,0,0.354,0.118,0.472,0.354C293.386,11.899,293.976,13.552,294.685,15.206L294.685,15.206z"
		/>
	<path style="fill-rule:evenodd;clip-rule:evenodd;fill:#2F3437;" d="M214.843,57.017c0.354,0.118,0.827,0.118,1.063,0.118
		c1.535,0,3.071-0.118,4.488-0.472c1.063-0.236,2.126-0.472,3.071-0.709c0.472-5.197,1.417-10.039,3.543-10.63
		c0.945-0.236,2.008-0.118,3.189,0.354c1.535,0.472,1.535,4.724,1.299,8.031c3.189-0.945,6.85-1.772,10.039-1.535
		c7.205,0.354,5.433,7.087,1.417,6.968c-0.591-0.118-1.299-0.591-1.181-1.417c0-0.354,0.236-0.709,0.472-0.945
		c0.118-0.118,0.354-0.236,0.354-0.472c0-0.709-2.244-0.827-2.598-0.827c-1.417,0-2.835,0.118-4.252,0.236
		c-1.417,0.236-2.953,0.591-4.488,0.945c0,0.236,0,0.354,0,0.472c0,1.181,0,2.717-0.118,4.961c-0.118,2.126-0.118,3.661-0.236,4.606
		c-0.472,8.386-0.945,15.945,0.945,24.094c2.008,8.622,7.087,4.961,11.22,0c2.244-2.835,4.252-6.024,5.197-7.677
		c0.354-0.709,0.827-1.063,1.535-0.827c0.472,0.236,0.591,0.709,0.354,1.535c-2.953,8.15-14.409,25.039-23.031,9.567
		c-0.945-1.654-1.654-3.661-2.244-5.669c-1.299,2.717-2.835,4.961-4.606,6.732c-2.953,3.071-5.906,4.724-9.094,5.197
		c-2.126,0.236-4.134-0.118-5.906-1.181c-1.772-1.063-3.307-2.717-4.606-4.961c-0.709-1.181-1.181-2.598-1.654-4.134
		c-1.063,3.661-2.48,6.969-4.488,8.858c-1.89,1.89-4.37,2.126-6.732,0.709c-2.835-1.654-7.205-7.087-8.976-10.748
		c0,1.417-0.236,2.48-0.236,3.543c0,1.654-0.118,3.189,0.118,4.843c0.591,4.37-3.307,4.488-4.961,0
		c-1.063-3.071-1.89-5.906-2.717-8.622c-2.598,6.496-6.496,11.457-10.512,11.929c-9.803,0.945-8.858-17.953-6.969-23.858
		c0.472-1.299,0.472-2.48-0.354-2.598c-0.472-0.236-1.063-0.354-1.535-0.472c-0.709,3.071-1.417,5.433-1.654,6.26
		c-1.063,4.016-4.606,20.433-11.102,20.669c-5.906,0.118-6.969-6.732-7.441-11.575c-2.953,7.205-9.095,13.465-15.709,11.22
		c-1.181-0.472-2.244-1.181-3.189-2.126c-0.472-0.591-0.945-1.063-1.299-1.654c-5.197,6.378-10.748,4.606-13.937-0.472
		c-5.197-8.504-1.535-19.252,0-28.228c1.299-8.031-2.244-14.409-7.087-6.26c-2.953,4.961-5.433,14.291-5.433,20.197
		c0,3.189-4.252,2.126-5.787-1.181c-4.961-10.039-4.488-33.425-11.102-23.386c-5.551,8.504-4.724,19.134-3.78,30.236
		c0.236,3.307,0.591,5.906,0.591,9.213c0,3.189-0.709,5.315-4.016,2.953c-6.732-5.079-12.638-26.102-10.512-34.37
		c1.063-4.134,4.843-5.433,5.669,0.236c1.299,8.268,0.472,16.772,5.079,27.165c0.591,1.417,0.591,0.709,0.354-0.472
		c-3.071-13.701-3.543-23.622-1.654-31.063c3.898-15.827,20.551-21.85,22.795-4.488c0.591,4.134,0.236,8.622,0.472,11.22
		c0.236,4.488,0.472,2.717,0.945-0.118c1.063-5.197,3.189-9.685,5.906-12.402c7.677-7.559,16.654-0.236,15,10.512
		c-1.772,11.339-2.48,13.937-2.48,20.551c0,4.252-0.236,14.764,6.378,9.213c0.472-0.354,0.827-0.827,1.299-1.299
		c-0.709-1.535-1.181-3.189-1.417-5.079c-0.827-6.024-0.118-11.339,2.244-15.945c1.654-3.071,3.898-5.197,6.732-6.496
		c2.953-1.181,5.906-1.299,8.858-0.118c1.417,0.709,2.835,1.89,4.37,3.543c0.118-0.591,0.236-0.945,0.236-1.063
		c0.236-1.063,0.472-1.772,0.945-2.244c0.354-0.354,1.063-0.591,2.008-0.591c0.945,0,1.654,0.236,2.244,0.709
		c0.472,0.472,0.827,1.181,0.945,2.244c0.236,1.772,0.354,3.307,0.472,4.606c0,1.535,0,4.37-0.118,8.386
		c0,4.016,0,6.732,0.118,8.268c1.063,20.197,9.213-12.047,10.866-15.945c0.118-0.354,0.236-0.827,0.354-1.417
		c0.118-0.236,0.118-0.354,0.118-0.472c-2.362-1.063-4.37-2.48-6.024-4.606c-7.205-9.449,2.835-17.953,8.976-14.409
		c5.433,3.071,4.016,10.394,1.772,14.764c-0.236,0.472-0.236,0.827-0.118,0.945c0,0.236,0.354,0.472,0.709,0.591
		c0.236,0.118,1.063,0.472,2.244,0.945c1.299,0.472,2.244,0.827,2.835,1.181c4.606,2.598-4.961,26.339,0.827,24.803
		c4.134-1.063,7.559-6.142,9.685-13.11c-9.567-44.409,24.921-47.008,17.244-22.913c-2.126,6.85-9.331,13.701-11.22,16.654
		c-0.236,2.835,0.827,8.976,1.063,11.575c0.709-6.024,2.362-11.811,5.551-17.008c1.063-1.654,2.244-3.189,4.016-4.37
		c10.039-6.732,13.346,12.283-3.425,19.252c3.071,3.898,4.134,6.142,6.968,8.032c3.543,2.48,6.26-4.488,8.031-10.039
		c-0.236-2.835,0-5.669,0.827-8.386c0.709-2.953,2.008-5.433,4.016-7.441c4.488-4.843,14.291-5.787,15.118,2.362
		c0.472,4.37-1.89,8.622-5.315,11.339c-2.008,1.535-4.37,2.48-7.205,2.835c0.472,3.78,1.417,6.614,2.835,8.386
		c1.417,1.772,3.071,2.48,5.079,2.244c2.126-0.236,4.252-1.654,6.496-4.134c1.535-1.772,2.953-3.898,4.37-6.614
		c-0.945-5.079-1.063-10.512-1.181-15.118c0-1.535-0.118-6.024,0.236-10.748c-1.063,0.236-2.008,0.472-2.953,0.591
		c-1.772,0.354-3.543,0.591-5.315,0.472c-2.48-0.118-5.315-1.181-5.197-4.134c0.118-1.89,1.772-4.016,3.78-3.898
		c0.709,0,1.299,0.236,1.772,0.709c0.945,1.181,0.354,3.071-0.827,4.016C214.37,56.899,214.37,56.781,214.843,57.017L214.843,57.017
		z M175.748,72.608c-0.354-5.197-0.591-18.425,4.488-22.677c2.48-2.126,4.016,0.118,4.488,2.835
		C186.378,62.568,175.748,73.316,175.748,72.608L175.748,72.608z M190.039,71.663c0.236,5.551-5.197,11.457-10.63,13.819
		c3.425-8.858,4.488-10.394,7.913-14.528C188.032,70.009,190.039,69.419,190.039,71.663L190.039,71.663z M205.276,82.765
		c12.992-2.244,9.567-18.071,3.898-13.701C206.811,70.836,204.685,75.442,205.276,82.765L205.276,82.765z M150.945,65.875
		c3.071-8.386-2.48-12.756-3.189-7.087c-0.236,2.244,0.591,4.606,2.48,7.205C150.472,66.348,150.709,66.348,150.945,65.875
		L150.945,65.875z M119.173,73.671c-2.717,5.197-5.551,14.882-2.126,20.787c3.189,5.315,11.22-5.315,12.992-11.693
		c0.472-1.417-0.118-6.732-0.709-7.677C126.142,70.482,122.598,66.938,119.173,73.671L119.173,73.671z"/>
</g>
</svg>
